<svg xmlns="http://www.w3.org/2000/svg" viewBox="0 0 1200 620" role="img"><title>Auction market theory balance and imbalance</title><rect width="1200" height="620" rx="28" fill="#090d16"/><text x="70" y="58" fill="#eef2fb" font-family="Arial" font-size="30" font-weight="700">AUCTION MARKET THEORY</text><rect x="90" y="145" width="520" height="330" rx="24" fill="#101827" stroke="#57a5ff" stroke-width="4"/><text x="350" y="125" text-anchor="middle" fill="#57a5ff" font-family="Arial" font-size="23" font-weight="700">BALANCE · VALUE ACCEPTED</text><path d="M140 300C190 210 250 410 310 290S430 215 500 305S555 385 575 300" fill="none" stroke="#eef2fb" stroke-width="8"/><rect x="205" y="190" width="290" height="225" rx="18" fill="#57a5ff" opacity=".08"/><path d="M650 145H1110V475H650Z" fill="#101827" stroke="#ffd071" stroke-width="4"/><text x="880" y="125" text-anchor="middle" fill="#ffd071" font-family="Arial" font-size="23" font-weight="700">IMBALANCE · PRICE DISCOVERY</text><path d="M690 420L760 390L815 330L875 285L930 210L1060 160" fill="none" stroke="#2ee6a6" stroke-width="9" stroke-linecap="round"/><g fill="#9a83ff"><rect x="145" y="500" width="410" height="34" rx="12"/><rect x="190" y="540" width="320" height="24" rx="10" opacity=".65"/></g><text x="350" y="592" text-anchor="middle" fill="#8996ad" font-family="Arial" font-size="18" font-weight="700">high volume / time = acceptance</text><g fill="#9a83ff"><rect x="710" y="505" width="95" height="20" rx="8"/><rect x="815" y="505" width="55" height="20" rx="8"/><rect x="880" y="505" width="35" height="20" rx="8"/></g><text x="900" y="560" text-anchor="middle" fill="#8996ad" font-family="Arial" font-size="18" font-weight="700">low-volume transition = rapid travel</text></svg>