<svg xmlns="http://www.w3.org/2000/svg" viewBox="0 0 1200 650"><rect width="1200" height="650" rx="28" fill="#090d16"/><g font-family="Arial,sans-serif"><text x="70" y="58" fill="#eef2fb" font-size="30" font-weight="800">INSTITUTIONAL EXECUTION — VWAP, TWAP AND POV</text><g transform="translate(70 105)"><rect width="330" height="440" rx="20" fill="#0e1522" stroke="#283750" stroke-width="3"/><text x="165" y="42" text-anchor="middle" fill="#57a5ff" font-size="24" font-weight="800">VWAP</text><polyline points="35,335 90,285 145,315 205,205 265,245 300,135" fill="none" stroke="#eef2fb" stroke-width="5"/><path d="M35 350C110 330 180 265 300 160" fill="none" stroke="#57a5ff" stroke-width="6"/><g fill="#2ee6a6"><circle cx="80" cy="310" r="9"/><circle cx="155" cy="275" r="13"/><circle cx="235" cy="205" r="17"/><circle cx="285" cy="160" r="12"/></g><text x="165" y="400" text-anchor="middle" fill="#8996ad" font-size="18">size follows expected volume</text></g><g transform="translate(435 105)"><rect width="330" height="440" rx="20" fill="#0e1522" stroke="#283750" stroke-width="3"/><text x="165" y="42" text-anchor="middle" fill="#ffd071" font-size="24" font-weight="800">TWAP</text><polyline points="35,300 90,220 145,270 205,170 265,235 300,145" fill="none" stroke="#eef2fb" stroke-width="5"/><path d="M45 350H295" stroke="#ffd071" stroke-width="5"/><g fill="#ffd071"><circle cx="60" cy="300" r="11"/><circle cx="110" cy="280" r="11"/><circle cx="160" cy="250" r="11"/><circle cx="210" cy="220" r="11"/><circle cx="260" cy="185" r="11"/></g><text x="165" y="400" text-anchor="middle" fill="#8996ad" font-size="18">equal slices through time</text></g><g transform="translate(800 105)"><rect width="330" height="440" rx="20" fill="#0e1522" stroke="#283750" stroke-width="3"/><text x="165" y="42" text-anchor="middle" fill="#9a83ff" font-size="24" font-weight="800">POV</text><g fill="#283750"><rect x="35" y="285" width="28" height="80"/><rect x="80" y="220" width="28" height="145"/><rect x="125" y="300" width="28" height="65"/><rect x="170" y="170" width="28" height="195"/><rect x="215" y="245" width="28" height="120"/><rect x="260" y="135" width="28" height="230"/></g><g fill="#9a83ff"><rect x="42" y="330" width="14" height="35"/><rect x="87" y="300" width="14" height="65"/><rect x="132" y="338" width="14" height="27"/><rect x="177" y="280" width="14" height="85"/><rect x="222" y="312" width="14" height="53"/><rect x="267" y="260" width="14" height="105"/></g><text x="165" y="400" text-anchor="middle" fill="#8996ad" font-size="18">trade a target share of volume</text></g><rect x="70" y="575" width="1060" height="45" rx="14" fill="#111a29"/><text x="600" y="604" text-anchor="middle" fill="#8996ad" font-size="19" font-weight="700">execution algorithms manage impact and benchmark risk; they do not reveal directional conviction</text></g></svg>