<svg xmlns="http://www.w3.org/2000/svg" viewBox="0 0 900 420" role="img"><rect width="900" height="420" rx="26" fill="#090d15"/><text x="45" y="55" fill="#9a83ff" font-family="system-ui" font-size="18" font-weight="800" letter-spacing="3">VOLUME PROFILE</text><g stroke="#20283a"><path d="M60 95H840M60 155H840M60 215H840M60 275H840M60 335H840"/></g><path d="M90 330C165 300 205 320 265 260S380 160 450 225 560 300 635 205 735 145 810 105" fill="none" stroke="#eef2fb" stroke-width="5"/><g fill="#654fd1"><rect x="655" y="88" width="135" height="24" rx="4"/><rect x="615" y="118" width="175" height="24" rx="4"/><rect x="565" y="148" width="225" height="24" rx="4"/><rect x="485" y="178" width="305" height="24" rx="4"/><rect x="405" y="208" width="385" height="30" rx="4" fill="#ffd071"/><rect x="525" y="244" width="265" height="24" rx="4"/><rect x="590" y="274" width="200" height="24" rx="4"/><rect x="650" y="304" width="140" height="24" rx="4"/></g><g font-family="system-ui" font-weight="700"><text x="420" y="228" fill="#090d15" font-size="18">POINT OF CONTROL</text><text x="95" y="378" fill="#8893aa" font-size="16">longer bars = more estimated activity at that price</text><text x="655" y="365" fill="#ffd071" font-size="16">highest-volume node</text></g></svg>