<svg xmlns="http://www.w3.org/2000/svg" viewBox="0 0 1200 520" role="img" aria-labelledby="t d"><title id="t">VWAP and moving averages</title><desc id="d">Candles with VWAP, fast and slow moving averages, showing a confirmed reclaim above rising VWAP.</desc><rect width="1200" height="520" rx="28" fill="#090d16"/><g stroke="#1d2940" stroke-width="2"><path d="M70 100H1130M70 200H1130M70 300H1130M70 400H1130"/><path d="M200 50V470M400 50V470M600 50V470M800 50V470M1000 50V470"/></g><polyline points="100,365 190,345 280,355 370,320 460,300 550,270 640,240 730,210 820,180 910,145 1090,105" fill="none" stroke="#eef2fb" stroke-width="7"/><path d="M95 380C280 365 430 335 570 285S850 170 1090 110" fill="none" stroke="#ffd071" stroke-width="8"/><path d="M95 395C300 380 460 350 610 300S875 205 1090 145" fill="none" stroke="#9a83ff" stroke-width="6"/><path d="M95 350C260 345 415 320 555 270S825 145 1090 90" fill="none" stroke="#57a5ff" stroke-width="6"/><circle cx="550" cy="270" r="17" fill="#090d16" stroke="#2ee6a6" stroke-width="5"/><path d="M550 270V195" stroke="#2ee6a6" stroke-width="4"/><g font-family="Arial,sans-serif" font-weight="700"><text x="85" y="55" fill="#eef2fb" font-size="28">VWAP + MOVING AVERAGES</text><text x="875" y="90" fill="#57a5ff" font-size="21">fast MA</text><text x="875" y="138" fill="#ffd071" font-size="21">VWAP</text><text x="875" y="195" fill="#9a83ff" font-size="21">slow MA</text><text x="400" y="178" fill="#2ee6a6" font-size="22">confirmed reclaim</text><text x="315" y="458" fill="#8996ad" font-size="19">closed price reclaims rising VWAP while trend averages align</text></g></svg>